<mxfile host="app.diagrams.net" agent="Mozilla/5.0 (Windows NT 10.0; Win64; x64; rv:138.0) Gecko/20100101 Firefox/138.0" version="26.1.1">
  <diagram name="PÃ¡gina-1" id="W80HF2-vX2Cgz_CxTdM9">
    <mxGraphModel dx="880" dy="434" grid="1" gridSize="10" guides="1" tooltips="1" connect="1" arrows="1" fold="1" page="1" pageScale="1" pageWidth="827" pageHeight="1169" math="0" shadow="0">
      <root>
        <mxCell id="0" />
        <mxCell id="1" parent="0" />
        <mxCell id="1FEQrRicZQSeHbsqku_N-30" style="edgeStyle=orthogonalEdgeStyle;rounded=0;orthogonalLoop=1;jettySize=auto;html=1;entryX=0.5;entryY=0;entryDx=0;entryDy=0;" edge="1" parent="1" source="1FEQrRicZQSeHbsqku_N-22" target="1FEQrRicZQSeHbsqku_N-16">
          <mxGeometry relative="1" as="geometry" />
        </mxCell>
        <mxCell id="1FEQrRicZQSeHbsqku_N-22" value="PPE" style="whiteSpace=wrap;html=1;aspect=fixed;fillColor=#ffe6cc;strokeColor=#d79b00;" vertex="1" parent="1">
          <mxGeometry x="510" y="90" width="130" height="130" as="geometry" />
        </mxCell>
        <mxCell id="1FEQrRicZQSeHbsqku_N-11" value="FIleImage - Storage" style="image;aspect=fixed;html=1;points=[];align=center;fontSize=12;image=img/lib/azure2/general/Storage_Azure_Files.svg;" vertex="1" parent="1">
          <mxGeometry x="140" y="320" width="184.62" height="150" as="geometry" />
        </mxCell>
        <mxCell id="1FEQrRicZQSeHbsqku_N-3" value="" style="shape=mxgraph.signs.tech.camera_2;html=1;pointerEvents=1;fillColor=#000000;strokeColor=none;verticalLabelPosition=bottom;verticalAlign=top;align=center;" vertex="1" parent="1">
          <mxGeometry x="217.31" y="380" width="30" height="30" as="geometry" />
        </mxCell>
        <mxCell id="1FEQrRicZQSeHbsqku_N-12" value="" style="shape=mxgraph.signs.tech.camera_2;html=1;pointerEvents=1;fillColor=#000000;strokeColor=none;verticalLabelPosition=bottom;verticalAlign=top;align=center;" vertex="1" parent="1">
          <mxGeometry x="250" y="390" width="30" height="30" as="geometry" />
        </mxCell>
        <mxCell id="1FEQrRicZQSeHbsqku_N-13" value="" style="shape=mxgraph.signs.tech.camera_2;html=1;pointerEvents=1;fillColor=#000000;strokeColor=none;verticalLabelPosition=bottom;verticalAlign=top;align=center;" vertex="1" parent="1">
          <mxGeometry x="210" y="420" width="30" height="30" as="geometry" />
        </mxCell>
        <mxCell id="1FEQrRicZQSeHbsqku_N-14" value="" style="shape=mxgraph.signs.tech.camera_2;html=1;pointerEvents=1;fillColor=#000000;strokeColor=none;verticalLabelPosition=bottom;verticalAlign=top;align=center;" vertex="1" parent="1">
          <mxGeometry x="247.31" y="420" width="30" height="30" as="geometry" />
        </mxCell>
        <mxCell id="1FEQrRicZQSeHbsqku_N-15" value="&lt;div&gt;CNPD&lt;/div&gt;&lt;div&gt;API&lt;/div&gt;&lt;div&gt;BACKEND&lt;/div&gt;" style="whiteSpace=wrap;html=1;aspect=fixed;fillColor=#dae8fc;strokeColor=#6c8ebf;" vertex="1" parent="1">
          <mxGeometry x="522.31" y="320" width="80" height="80" as="geometry" />
        </mxCell>
        <mxCell id="1FEQrRicZQSeHbsqku_N-28" style="edgeStyle=orthogonalEdgeStyle;rounded=0;orthogonalLoop=1;jettySize=auto;html=1;entryX=0;entryY=0.5;entryDx=0;entryDy=0;" edge="1" parent="1" source="1FEQrRicZQSeHbsqku_N-16" target="1FEQrRicZQSeHbsqku_N-15">
          <mxGeometry relative="1" as="geometry" />
        </mxCell>
        <mxCell id="1FEQrRicZQSeHbsqku_N-16" value="&lt;div&gt;CNPD&lt;/div&gt;&lt;div&gt;API&lt;/div&gt;&lt;div&gt;BACKEND&lt;/div&gt;" style="whiteSpace=wrap;html=1;aspect=fixed;fillColor=#f8cecc;strokeColor=#b85450;" vertex="1" parent="1">
          <mxGeometry x="334" y="210" width="80" height="80" as="geometry" />
        </mxCell>
        <mxCell id="1FEQrRicZQSeHbsqku_N-17" value="" style="group" vertex="1" connectable="0" parent="1">
          <mxGeometry x="20" y="120" width="210" height="190" as="geometry" />
        </mxCell>
        <mxCell id="1FEQrRicZQSeHbsqku_N-1" value="&lt;div&gt;&amp;nbsp;Azure DB&lt;/div&gt;&lt;div&gt;&lt;br&gt;&lt;/div&gt;&lt;div&gt;- CNPD&lt;/div&gt;&lt;div&gt;- BNBO&lt;/div&gt;" style="shape=cylinder3;whiteSpace=wrap;html=1;boundedLbl=1;backgroundOutline=1;size=15;fillColor=#1ba1e2;strokeColor=#006EAF;fontColor=#ffffff;" vertex="1" parent="1FEQrRicZQSeHbsqku_N-17">
          <mxGeometry x="80" width="130" height="130" as="geometry" />
        </mxCell>
        <mxCell id="1FEQrRicZQSeHbsqku_N-2" value="Pessoa" style="shape=umlActor;verticalLabelPosition=bottom;verticalAlign=top;html=1;outlineConnect=0;" vertex="1" parent="1FEQrRicZQSeHbsqku_N-17">
          <mxGeometry y="130" width="30" height="60" as="geometry" />
        </mxCell>
        <mxCell id="1FEQrRicZQSeHbsqku_N-8" value="" style="verticalLabelPosition=bottom;verticalAlign=top;html=1;shape=mxgraph.basic.tick;fillColor=#60a917;fontColor=#ffffff;strokeColor=#2D7600;" vertex="1" parent="1FEQrRicZQSeHbsqku_N-17">
          <mxGeometry x="171" y="59" width="30" height="30" as="geometry" />
        </mxCell>
        <mxCell id="1FEQrRicZQSeHbsqku_N-9" value="" style="verticalLabelPosition=bottom;verticalAlign=top;html=1;shape=mxgraph.basic.x;fillColor=#a20025;fontColor=#ffffff;strokeColor=#6F0000;" vertex="1" parent="1FEQrRicZQSeHbsqku_N-17">
          <mxGeometry x="173" y="92" width="20" height="24" as="geometry" />
        </mxCell>
        <mxCell id="1FEQrRicZQSeHbsqku_N-10" style="edgeStyle=orthogonalEdgeStyle;rounded=0;orthogonalLoop=1;jettySize=auto;html=1;exitX=0.5;exitY=0.5;exitDx=0;exitDy=0;exitPerimeter=0;" edge="1" parent="1FEQrRicZQSeHbsqku_N-17" source="1FEQrRicZQSeHbsqku_N-2" target="1FEQrRicZQSeHbsqku_N-1">
          <mxGeometry relative="1" as="geometry" />
        </mxCell>
        <mxCell id="1FEQrRicZQSeHbsqku_N-18" value="" style="shape=mxgraph.signs.tech.camera_2;html=1;pointerEvents=1;fillColor=#000000;strokeColor=none;verticalLabelPosition=bottom;verticalAlign=top;align=center;" vertex="1" parent="1">
          <mxGeometry x="590" y="110" width="30" height="30" as="geometry" />
        </mxCell>
        <mxCell id="1FEQrRicZQSeHbsqku_N-19" value="" style="shape=mxgraph.signs.tech.camera_2;html=1;pointerEvents=1;fillColor=#000000;strokeColor=none;verticalLabelPosition=bottom;verticalAlign=top;align=center;" vertex="1" parent="1">
          <mxGeometry x="530" y="110" width="30" height="30" as="geometry" />
        </mxCell>
        <mxCell id="1FEQrRicZQSeHbsqku_N-20" value="" style="shape=mxgraph.signs.tech.camera_2;html=1;pointerEvents=1;fillColor=#000000;strokeColor=none;verticalLabelPosition=bottom;verticalAlign=top;align=center;" vertex="1" parent="1">
          <mxGeometry x="590" y="170" width="30" height="30" as="geometry" />
        </mxCell>
        <mxCell id="1FEQrRicZQSeHbsqku_N-21" value="" style="shape=mxgraph.signs.tech.camera_2;html=1;pointerEvents=1;fillColor=#000000;strokeColor=none;verticalLabelPosition=bottom;verticalAlign=top;align=center;" vertex="1" parent="1">
          <mxGeometry x="522.31" y="170" width="30" height="30" as="geometry" />
        </mxCell>
        <mxCell id="1FEQrRicZQSeHbsqku_N-25" style="edgeStyle=orthogonalEdgeStyle;rounded=0;orthogonalLoop=1;jettySize=auto;html=1;entryX=0.645;entryY=-0.027;entryDx=0;entryDy=0;entryPerimeter=0;" edge="1" parent="1" source="1FEQrRicZQSeHbsqku_N-16" target="1FEQrRicZQSeHbsqku_N-11">
          <mxGeometry relative="1" as="geometry" />
        </mxCell>
      </root>
    </mxGraphModel>
  </diagram>
</mxfile>
